{"asset":{"version":"2.0","generator":"The Villager Rebuild Cozy Rabbit Asset"},"scene":0,"scenes":[{"name":"CozyRabbitScene","nodes":[33]}],"nodes":[{"name":"RabbitBody","mesh":0,"translation":[0,0.43,-0.07],"scale":[0.38,0.38,0.5]},{"name":"RabbitChest","mesh":1,"translation":[0,0.47,0.22],"scale":[0.27,0.29,0.22]},{"name":"RabbitHaunchLeft","mesh":0,"translation":[-0.18,0.31,-0.3],"scale":[0.23,0.26,0.3]},{"name":"RabbitHaunchRight","mesh":0,"translation":[0.18,0.31,-0.3],"scale":[0.23,0.26,0.3]},{"name":"RabbitTail","mesh":1,"translation":[0,0.43,-0.58],"scale":[0.145,0.145,0.145]},{"name":"RabbitSkull","mesh":0,"translation":[0,0,0],"scale":[0.285,0.275,0.285]},{"name":"RabbitFacePatch","mesh":1,"translation":[0,-0.035,0.155],"scale":[0.2,0.18,0.15]},{"name":"RabbitMuzzleLeft","mesh":1,"translation":[-0.068,-0.1,0.255],"scale":[0.105,0.075,0.085]},{"name":"RabbitMuzzleRight","mesh":1,"translation":[0.068,-0.1,0.255],"scale":[0.105,0.075,0.085]},{"name":"RabbitNose","mesh":2,"translation":[0,-0.075,0.345],"scale":[0.052,0.042,0.042]},{"name":"RabbitEyeLeft","mesh":3,"translation":[-0.135,0.045,0.24],"scale":[0.073,0.088,0.055]},{"name":"RabbitEyeRight","mesh":3,"translation":[0.135,0.045,0.24],"scale":[0.073,0.088,0.055]},{"name":"RabbitEyeHighlightLeft","mesh":4,"translation":[-0.157,0.075,0.291],"scale":[0.02,0.024,0.012]},{"name":"RabbitEyeHighlightRight","mesh":4,"translation":[0.113,0.075,0.291],"scale":[0.02,0.024,0.012]},{"name":"RabbitEarLeftFur","mesh":0,"translation":[0,0.24,0],"scale":[0.095,0.3,0.075]},{"name":"RabbitEarLeftInner","mesh":2,"translation":[0,0.245,0.068],"scale":[0.058,0.245,0.027]},{"name":"RabbitEarRightFur","mesh":0,"translation":[0,0.24,0],"scale":[0.095,0.3,0.075]},{"name":"RabbitEarRightInner","mesh":2,"translation":[0,0.245,0.068],"scale":[0.058,0.245,0.027]},{"name":"rabbit-ear-left","translation":[-0.1,0.17,-0.025],"rotation":[-0.049856770297793146,-0.0034956854063557634,-0.06985543699112623,0.9963043212602221],"children":[14,15]},{"name":"rabbit-ear-right","translation":[0.1,0.17,-0.025],"rotation":[-0.049856770297793146,0.0034956854063557634,0.06985543699112623,0.9963043212602221],"children":[16,17]},{"name":"rabbit-head","translation":[0,0.7,0.37],"children":[5,6,7,8,9,10,11,12,13,18,19]},{"name":"RabbitFrontLeftLeg","mesh":0,"translation":[0,-0.1,0.02],"scale":[0.075,0.17,0.085]},{"name":"RabbitFrontLeftPaw","mesh":1,"translation":[0,-0.24,0.07],"scale":[0.095,0.065,0.135]},{"name":"RabbitFrontRightLeg","mesh":0,"translation":[0,-0.1,0.02],"scale":[0.075,0.17,0.085]},{"name":"RabbitFrontRightPaw","mesh":1,"translation":[0,-0.24,0.07],"scale":[0.095,0.065,0.135]},{"name":"rabbit-front-left","translation":[-0.13,0.27,0.25],"children":[21,22]},{"name":"rabbit-front-right","translation":[0.13,0.27,0.25],"children":[23,24]},{"name":"RabbitBackLeftLeg","mesh":0,"translation":[0,-0.03,-0.01],"scale":[0.14,0.17,0.2]},{"name":"RabbitBackLeftPaw","mesh":1,"translation":[0,-0.15,0.14],"scale":[0.14,0.075,0.21]},{"name":"RabbitBackRightLeg","mesh":0,"translation":[0,-0.03,-0.01],"scale":[0.14,0.17,0.2]},{"name":"RabbitBackRightPaw","mesh":1,"translation":[0,-0.15,0.14],"scale":[0.14,0.075,0.21]},{"name":"rabbit-back-left","translation":[-0.19,0.27,-0.29],"rotation":[0.08987854919801104,0,0,0.9959527330119943],"children":[27,28]},{"name":"rabbit-back-right","translation":[0.19,0.27,-0.29],"rotation":[0.08987854919801104,0,0,0.9959527330119943],"children":[29,30]},{"name":"CozyRabbitRoot","translation":[0,0,0],"children":[0,1,2,3,4,20,25,26,31,32]}],"meshes":[{"name":"FurMesh","primitives":[{"attributes":{"POSITION":0,"NORMAL":1},"indices":2,"material":0}]},{"name":"CreamMesh","primitives":[{"attributes":{"POSITION":0,"NORMAL":1},"indices":2,"material":1}]},{"name":"PinkMesh","primitives":[{"attributes":{"POSITION":0,"NORMAL":1},"indices":2,"material":2}]},{"name":"EyeMesh","primitives":[{"attributes":{"POSITION":0,"NORMAL":1},"indices":2,"material":3}]},{"name":"HighlightMesh","primitives":[{"attributes":{"POSITION":0,"NORMAL":1},"indices":2,"material":4}]}],"materials":[{"name":"WarmBrownFur","pbrMetallicRoughness":{"baseColorFactor":[0.56,0.34,0.2,1],"metallicFactor":0,"roughnessFactor":0.92}},{"name":"CreamFur","pbrMetallicRoughness":{"baseColorFactor":[0.92,0.84,0.7,1],"metallicFactor":0,"roughnessFactor":0.96}},{"name":"SoftPink","pbrMetallicRoughness":{"baseColorFactor":[0.93,0.55,0.55,1],"metallicFactor":0,"roughnessFactor":0.88}},{"name":"DeepBrownEyes","pbrMetallicRoughness":{"baseColorFactor":[0.08,0.045,0.025,1],"metallicFactor":0,"roughnessFactor":0.28}},{"name":"EyeHighlight","pbrMetallicRoughness":{"baseColorFactor":[1,0.97,0.9,1],"metallicFactor":0,"roughnessFactor":0.35}}],"animations":[{"name":"Idle","samplers":[{"input":3,"output":4,"interpolation":"LINEAR"},{"input":5,"output":6,"interpolation":"LINEAR"},{"input":7,"output":8,"interpolation":"LINEAR"}],"channels":[{"sampler":0,"target":{"node":18,"path":"rotation"}},{"sampler":1,"target":{"node":19,"path":"rotation"}},{"sampler":2,"target":{"node":20,"path":"rotation"}}]},{"name":"Walk","samplers":[{"input":9,"output":10,"interpolation":"LINEAR"},{"input":11,"output":12,"interpolation":"LINEAR"},{"input":13,"output":14,"interpolation":"LINEAR"},{"input":15,"output":16,"interpolation":"LINEAR"},{"input":17,"output":18,"interpolation":"LINEAR"},{"input":19,"output":20,"interpolation":"LINEAR"},{"input":21,"output":22,"interpolation":"LINEAR"},{"input":23,"output":24,"interpolation":"LINEAR"}],"channels":[{"sampler":0,"target":{"node":33,"path":"translation"}},{"sampler":1,"target":{"node":18,"path":"rotation"}},{"sampler":2,"target":{"node":19,"path":"rotation"}},{"sampler":3,"target":{"node":25,"path":"rotation"}},{"sampler":4,"target":{"node":26,"path":"rotation"}},{"sampler":5,"target":{"node":31,"path":"rotation"}},{"sampler":6,"target":{"node":32,"path":"rotation"}},{"sampler":7,"target":{"node":20,"path":"rotation"}}]},{"name":"Run","samplers":[{"input":25,"output":26,"interpolation":"LINEAR"},{"input":27,"output":28,"interpolation":"LINEAR"},{"input":29,"output":30,"interpolation":"LINEAR"},{"input":31,"output":32,"interpolation":"LINEAR"},{"input":33,"output":34,"interpolation":"LINEAR"},{"input":35,"output":36,"interpolation":"LINEAR"},{"input":37,"output":38,"interpolation":"LINEAR"}],"channels":[{"sampler":0,"target":{"node":33,"path":"translation"}},{"sampler":1,"target":{"node":18,"path":"rotation"}},{"sampler":2,"target":{"node":19,"path":"rotation"}},{"sampler":3,"target":{"node":25,"path":"rotation"}},{"sampler":4,"target":{"node":26,"path":"rotation"}},{"sampler":5,"target":{"node":31,"path":"rotation"}},{"sampler":6,"target":{"node":32,"path":"rotation"}}]},{"name":"Grazing","samplers":[{"input":39,"output":40,"interpolation":"LINEAR"},{"input":41,"output":42,"interpolation":"LINEAR"},{"input":43,"output":44,"interpolation":"LINEAR"}],"channels":[{"sampler":0,"target":{"node":20,"path":"rotation"}},{"sampler":1,"target":{"node":18,"path":"rotation"}},{"sampler":2,"target":{"node":19,"path":"rotation"}}]}],"buffers":[{"byteLength":2288,"uri":"data:application/octet-stream;base64,"}],"bufferViews":[{"buffer":0,"byteOffset":0,"byteLength":144,"target":34962},{"buffer":0,"byteOffset":144,"byteLength":144,"target":34962},{"buffer":0,"byteOffset":288,"byteLength":120,"target":34963},{"buffer":0,"byteOffset":408,"byteLength":12},{"buffer":0,"byteOffset":420,"byteLength":48},{"buffer":0,"byteOffset":468,"byteLength":12},{"buffer":0,"byteOffset":480,"byteLength":48},{"buffer":0,"byteOffset":528,"byteLength":12},{"buffer":0,"byteOffset":540,"byteLength":48},{"buffer":0,"byteOffset":588,"byteLength":20},{"buffer":0,"byteOffset":608,"byteLength":60},{"buffer":0,"byteOffset":668,"byteLength":20},{"buffer":0,"byteOffset":688,"byteLength":80},{"buffer":0,"byteOffset":768,"byteLength":20},{"buffer":0,"byteOffset":788,"byteLength":80},{"buffer":0,"byteOffset":868,"byteLength":20},{"buffer":0,"byteOffset":888,"byteLength":80},{"buffer":0,"byteOffset":968,"byteLength":20},{"buffer":0,"byteOffset":988,"byteLength":80},{"buffer":0,"byteOffset":1068,"byteLength":20},{"buffer":0,"byteOffset":1088,"byteLength":80},{"buffer":0,"byteOffset":1168,"byteLength":20},{"buffer":0,"byteOffset":1188,"byteLength":80},{"buffer":0,"byteOffset":1268,"byteLength":20},{"buffer":0,"byteOffset":1288,"byteLength":80},{"buffer":0,"byteOffset":1368,"byteLength":20},{"buffer":0,"byteOffset":1388,"byteLength":60},{"buffer":0,"byteOffset":1448,"byteLength":20},{"buffer":0,"byteOffset":1468,"byteLength":80},{"buffer":0,"byteOffset":1548,"byteLength":20},{"buffer":0,"byteOffset":1568,"byteLength":80},{"buffer":0,"byteOffset":1648,"byteLength":20},{"buffer":0,"byteOffset":1668,"byteLength":80},{"buffer":0,"byteOffset":1748,"byteLength":20},{"buffer":0,"byteOffset":1768,"byteLength":80},{"buffer":0,"byteOffset":1848,"byteLength":20},{"buffer":0,"byteOffset":1868,"byteLength":80},{"buffer":0,"byteOffset":1948,"byteLength":20},{"buffer":0,"byteOffset":1968,"byteLength":80},{"buffer":0,"byteOffset":2048,"byteLength":16},{"buffer":0,"byteOffset":2064,"byteLength":64},{"buffer":0,"byteOffset":2128,"byteLength":16},{"buffer":0,"byteOffset":2144,"byteLength":64},{"buffer":0,"byteOffset":2208,"byteLength":16},{"buffer":0,"byteOffset":2224,"byteLength":64}],"accessors":[{"bufferView":0,"componentType":5126,"count":12,"type":"VEC3","min":[-1,-1,-1],"max":[1,1,1]},{"bufferView":1,"componentType":5126,"count":12,"type":"VEC3"},{"bufferView":2,"componentType":5123,"count":60,"type":"SCALAR","min":[0],"max":[11]},{"bufferView":3,"componentType":5126,"count":3,"type":"SCALAR","min":[0],"max":[1.1]},{"bufferView":4,"componentType":5126,"count":3,"type":"VEC4"},{"bufferView":5,"componentType":5126,"count":3,"type":"SCALAR","min":[0],"max":[1.1]},{"bufferView":6,"componentType":5126,"count":3,"type":"VEC4"},{"bufferView":7,"componentType":5126,"count":3,"type":"SCALAR","min":[0],"max":[1.1]},{"bufferView":8,"componentType":5126,"count":3,"type":"VEC4"},{"bufferView":9,"componentType":5126,"count":5,"type":"SCALAR","min":[0],"max":[0.8]},{"bufferView":10,"componentType":5126,"count":5,"type":"VEC3"},{"bufferView":11,"componentType":5126,"count":5,"type":"SCALAR","min":[0],"max":[0.8]},{"bufferView":12,"componentType":5126,"count":5,"type":"VEC4"},{"bufferView":13,"componentType":5126,"count":5,"type":"SCALAR","min":[0],"max":[0.8]},{"bufferView":14,"componentType":5126,"count":5,"type":"VEC4"},{"bufferView":15,"componentType":5126,"count":5,"type":"SCALAR","min":[0],"max":[0.8]},{"bufferView":16,"componentType":5126,"count":5,"type":"VEC4"},{"bufferView":17,"componentType":5126,"count":5,"type":"SCALAR","min":[0],"max":[0.8]},{"bufferView":18,"componentType":5126,"count":5,"type":"VEC4"},{"bufferView":19,"componentType":5126,"count":5,"type":"SCALAR","min":[0],"max":[0.8]},{"bufferView":20,"componentType":5126,"count":5,"type":"VEC4"},{"bufferView":21,"componentType":5126,"count":5,"type":"SCALAR","min":[0],"max":[0.8]},{"bufferView":22,"componentType":5126,"count":5,"type":"VEC4"},{"bufferView":23,"componentType":5126,"count":5,"type":"SCALAR","min":[0],"max":[0.8]},{"bufferView":24,"componentType":5126,"count":5,"type":"VEC4"},{"bufferView":25,"componentType":5126,"count":5,"type":"SCALAR","min":[0],"max":[0.56]},{"bufferView":26,"componentType":5126,"count":5,"type":"VEC3"},{"bufferView":27,"componentType":5126,"count":5,"type":"SCALAR","min":[0],"max":[0.56]},{"bufferView":28,"componentType":5126,"count":5,"type":"VEC4"},{"bufferView":29,"componentType":5126,"count":5,"type":"SCALAR","min":[0],"max":[0.56]},{"bufferView":30,"componentType":5126,"count":5,"type":"VEC4"},{"bufferView":31,"componentType":5126,"count":5,"type":"SCALAR","min":[0],"max":[0.56]},{"bufferView":32,"componentType":5126,"count":5,"type":"VEC4"},{"bufferView":33,"componentType":5126,"count":5,"type":"SCALAR","min":[0],"max":[0.56]},{"bufferView":34,"componentType":5126,"count":5,"type":"VEC4"},{"bufferView":35,"componentType":5126,"count":5,"type":"SCALAR","min":[0],"max":[0.56]},{"bufferView":36,"componentType":5126,"count":5,"type":"VEC4"},{"bufferView":37,"componentType":5126,"count":5,"type":"SCALAR","min":[0],"max":[0.56]},{"bufferView":38,"componentType":5126,"count":5,"type":"VEC4"},{"bufferView":39,"componentType":5126,"count":4,"type":"SCALAR","min":[0],"max":[1.35]},{"bufferView":40,"componentType":5126,"count":4,"type":"VEC4"},{"bufferView":41,"componentType":5126,"count":4,"type":"SCALAR","min":[0],"max":[1.35]},{"bufferView":42,"componentType":5126,"count":4,"type":"VEC4"},{"bufferView":43,"componentType":5126,"count":4,"type":"SCALAR","min":[0],"max":[1.35]},{"bufferView":44,"componentType":5126,"count":4,"type":"VEC4"}]}